PathFileType	4	(X/Y/Z)	C:\Git\1_current_projects\powerlifing_model\simulations\Athlete_03\25_03_31\Walking_01\markers_experimental.trc
DataRate	CameraRate	NumFrames	NumMarkers	Units	OrigDataRate	OrigDataStartFrame	OrigNumFrames
200.000000	200.000000	4	53	mm	200.000000	0	239
Frame#	Time	GLAB			RFHD			LFHD			C7			T6			SPINMOL			SPINM2			SPINM3			T12			BELTOL			BELT2			BELT3			SACROL			SACR2			SACR3			LTHOL			LTH2			LTH3			LSHAOL			LSHA2			LSHA3			LHEE			LTOE			LM5			RTHOL			RTH2			RTH3			RSHAOL			RSHA2			RSHA3			RHEE			RTOE			RM5			STRN			XIPH			LACR			LUAOL			LUA2			LUA3			LLAOL			LLA2			LLA3			LWRR			LWRU			RACR			RUAOL			RUA2			RUA3			RLAOL			RLA2			RLA3			RWRR			RWRU			
		X1	Y1	Z1	X2	Y2	Z2	X3	Y3	Z3	X4	Y4	Z4	X5	Y5	Z5	X6	Y6	Z6	X7	Y7	Z7	X8	Y8	Z8	X9	Y9	Z9	X10	Y10	Z10	X11	Y11	Z11	X12	Y12	Z12	X13	Y13	Z13	X14	Y14	Z14	X15	Y15	Z15	X16	Y16	Z16	X17	Y17	Z17	X18	Y18	Z18	X19	Y19	Z19	X20	Y20	Z20	X21	Y21	Z21	X22	Y22	Z22	X23	Y23	Z23	X24	Y24	Z24	X25	Y25	Z25	X26	Y26	Z26	X27	Y27	Z27	X28	Y28	Z28	X29	Y29	Z29	X30	Y30	Z30	X31	Y31	Z31	X32	Y32	Z32	X33	Y33	Z33	X34	Y34	Z34	X35	Y35	Z35	X36	Y36	Z36	X37	Y37	Z37	X38	Y38	Z38	X39	Y39	Z39	X40	Y40	Z40	X41	Y41	Z41	X42	Y42	Z42	X43	Y43	Z43	X44	Y44	Z44	X45	Y45	Z45	X46	Y46	Z46	X47	Y47	Z47	X48	Y48	Z48	X49	Y49	Z49	X50	Y50	Z50	X51	Y51	Z51	X52	Y52	Z52	X53	Y53	Z53	

1	0	207.0017852783204	1579.595581054688	500.4848937988282	271.6486206054688	1604.48974609375	551.2610473632814	134.3667297363282	1601.661376953125	545.7175292968751	197.7752380371094	1419.157592773438	728.4750976562501	195.9573822021485	1252.020141601563	790.632507324219	175.2534484863282	1211.410278320313	800.2578125000002	225.0447692871094	1204.714599609375	805.055114746094	192.0572662353516	1147.536254882813	796.0071411132815	196.360336303711	1081.515869140625	770.964294433594	185.5886383056641	1048.102294921875	809.972839355469	235.7829589843751	1044.4423828125	806.4261474609377	205.5680236816407	985.3642578125002	814.423767089844	190.8734741210938	944.9958496093752	800.395935058594	241.0272216796876	938.405944824219	791.5891113281252	212.5649414062501	884.3498535156252	817.3257446289065	20.32850646972657	680.4656372070314	777.2717285156252	56.65755462646486	641.4218139648439	836.1412353515627	37.20000839233399	623.8995361328126	794.0239257812502	44.81763458251954	340.9436645507813	890.8574829101565	56.27759170532228	298.0045776367188	956.7908935546877	55.18412399291994	282.6352539062501	909.0573730468752	150.7895050048828	122.4030914306641	1040.121704101563	149.083251953125	39.78641510009766	836.6602172851565	50.04162597656251	32.39042663574219	883.4863891601565	384.9962158203126	646.9786376953126	636.7047729492189	404.7019348144532	613.9118041992189	566.4992675781251	377.4702148437501	595.5760498046876	604.6281738281251	387.3209228515626	320.6079406738282	505.6650390625001	397.2178039550782	275.0784606933594	443.186981201172	376.6936035156251	262.6439819335938	486.6141662597657	291.8200683593751	52.37558746337892	392.2473449707032	313.5597534179688	146.6291961669922	205.688461303711	407.7362670898439	94.37570953369142	237.1307525634766	202.1886901855469	1313.283935546875	558.7426757812501	198.7234497070313	1170.218505859375	544.7153320312501	27.21111488342286	1382.140380859375	649.3539428710939	-78.01112365722658	1235.899658203125	628.3551635742189	-97.58668518066409	1173.215942382813	625.9436035156251	-75.24039459228517	1188.798583984375	584.2764892578126	-120.1994171142578	1002.607055664063	503.2898254394532	-100.8313674926758	926.211608886719	496.9340820312501	-110.7183380126953	959.9150390625002	460.3542480468751	-94.23883056640626	893.686462402344	381.7196350097657	-27.38922309875489	930.1955566406252	360.9168701171876	370.0434265136719	1369.46435546875	649.7429809570314	467.502655029297	1226.56640625	696.2759399414064	481.3362426757814	1163.333374023438	684.7427978515626	484.5126953125001	1174.952758789063	734.0864868164064	529.5140380859376	958.2356567382815	740.3283691406251	569.9152221679689	902.1065063476565	702.5947265625001	538.8012084960939	896.1474609375002	740.5946655273439	565.1140136718751	811.2832031250002	719.5999145507814	504.0557556152345	784.1560058593752	673.1113891601564	
2	0.005	207.8014678955079	1579.110229492188	496.7462158203126	272.4773864746094	1603.923583984375	547.4919433593751	135.1928100585938	1601.213256835938	542.0014648437501	198.4894104003907	1418.607177734375	724.6263427734376	196.5366821289063	1251.495727539063	786.787780761719	175.8027801513672	1210.897583007813	796.4166259765627	225.5875701904297	1204.166381835938	801.2180175781252	192.5650482177735	1147.013061523438	792.1677246093752	196.814926147461	1080.985107421875	767.1016845703126	186.1913604736328	1047.63671875	806.1154785156252	236.3781433105469	1043.939697265625	802.5288085937502	206.1309356689454	984.892517089844	810.6092529296877	191.3667907714844	944.571472167969	796.5977783203127	241.4969787597657	937.9134521484377	787.724060058594	213.0238189697266	883.9336547851565	813.6080322265627	20.46572303771973	680.3752441406251	774.1376953125002	56.82310485839845	641.5058593750001	833.1170043945315	37.30412292480469	623.8846435546876	791.0809326171877	44.72483825683594	341.3901977539063	889.0296630859377	56.18872833251955	298.8367309570313	955.1770629882815	55.10548782348634	283.2026062011719	907.5189208984377	150.5807037353516	123.710678100586	1039.435913085938	149.0697937011719	39.6868019104004	836.5917968750002	49.98396301269533	32.43616104125977	883.2903442382815	385.4815368652345	646.5994262695314	632.0226440429689	404.7446289062501	613.8494873046876	561.5870361328126	377.8526611328126	595.2851562500001	599.8519287109376	387.0967102050782	320.2232360839844	501.594940185547	397.0597534179689	274.3241577148438	439.256805419922	376.3639831542969	262.1941223144532	482.7067260742189	291.5611877441407	51.80746078491212	388.7582092285157	313.1654968261719	145.5959777832032	202.0223541259766	407.3742980957032	93.44747924804689	233.4949798583985	202.806137084961	1312.707641601563	554.8964233398439	199.1974792480469	1169.6474609375	540.8544921875001	27.86904907226563	1381.688720703125	645.5498046875001	-77.45842742919923	1235.44873046875	624.7457275390626	-97.02186584472659	1172.721801757813	622.2497558593751	-74.77396392822267	1188.357421875	580.6467285156251	-119.8182830810547	1002.240966796875	499.5973510742189	-100.5037994384766	925.8264160156252	493.128143310547	-110.3681030273438	959.5834960937502	456.6399536132814	-93.92798614501955	893.3703613281252	377.9385986328126	-27.08859443664551	929.909606933594	357.1337890625001	370.7076721191407	1368.726318359375	645.9487304687501	468.0106811523439	1225.754272460938	692.5213012695314	481.8248596191407	1162.514282226563	680.9678344726564	485.0006408691407	1174.106323242188	730.3680419921876	529.8595581054689	957.3507080078127	736.5227661132814	570.2205200195314	901.2000732421877	698.7775268554689	539.0879516601564	895.2468261718752	736.7662353515626	565.3251953125001	810.3717041015627	715.7664794921876	504.2615356445314	783.3274536132815	669.2166137695314	
3	0.01	208.7256469726563	1578.572631835938	492.4450988769532	273.4346008300782	1603.2939453125	543.1618041992189	136.1461791992188	1600.71533203125	537.7266235351564	199.3184814453126	1417.989868164063	720.1945800781251	197.2078399658204	1250.90869140625	782.3577270507815	176.438461303711	1210.324096679688	791.9885253906252	226.2159271240235	1203.552124023438	796.7973632812502	193.1526794433594	1146.427124023438	787.7432250976565	197.3421630859376	1080.389282226563	762.6502685546876	186.8792724609375	1047.105102539063	801.6695556640627	237.0581665039063	1043.368041992188	798.0401611328127	206.7756958007813	984.353942871094	806.2088623046877	191.9278869628907	944.085144042969	792.2128906250002	242.0331726074219	937.3518066406252	783.2679443359377	213.5430145263672	883.4526367187502	809.302673339844	20.62307357788086	680.2782592773439	770.501403808594	57.02189254760744	641.5971679687501	829.5930786132815	37.43413543701173	623.8629760742189	787.646179199219	44.61900329589844	341.9135437011719	886.8753051757815	56.08822631835939	299.8123168945313	953.2693481445315	55.01766204833986	283.8694763183594	905.7000122070315	150.3443298339844	125.2534866333008	1038.594116210938	149.0578002929688	39.57095336914063	836.518005371094	49.91536712646486	32.49253463745118	883.0579223632815	386.0439453125001	646.1981201171876	626.6381225585939	404.8157653808595	613.8005371093751	555.9503173828126	378.3028259277344	594.9827880859376	594.3651123046876	386.8551635742189	319.7922668457032	496.9524536132814	396.8753051757814	273.4674987792969	434.7966613769532	376.0024108886719	261.6894226074219	478.2776184082032	291.2488708496094	51.16062164306642	384.9415893554689	312.6792297363282	144.2586669921875	197.9505920410157	406.9335021972657	92.2782669067383	229.4909362792969	203.5261383056641	1312.063110351563	550.4644165039064	199.7552947998047	1169.009521484375	536.4033203125001	28.63571929931641	1381.18310546875	641.1589355468751	-76.8118133544922	1234.945190429688	620.5841064453126	-96.36162567138675	1172.170532226563	617.9990844726564	-74.23181152343751	1187.861206054688	576.4667358398439	-119.3798828125	1001.818176269531	495.3715209960939	-100.1276626586914	925.379333496094	488.7890625000001	-109.9663009643555	959.1902465820315	452.3954162597657	-93.57800292968751	892.9851074218752	373.6299133300782	-26.74517822265626	929.5474243164065	352.8168029785157	371.4815368652344	1367.895141601563	641.5763549804689	468.6041564941407	1224.831909179688	688.1888427734376	482.394012451172	1161.585083007813	676.6120605468751	485.5669555664064	1173.14404296875	726.0717163085939	530.2539062500001	956.3408813476565	732.1206665039064	570.5672607421876	900.1646118164065	694.3588256835939	539.4137573242189	894.2200927734377	732.3347778320314	565.5638427734376	809.3330688476565	711.3276977539064	504.490447998047	782.389587402344	664.7073974609376	
4	0.015	209.7683868408204	1577.993408203125	487.6141357421876	274.5134887695313	1602.61279296875	538.3046875000001	137.2203063964844	1600.1767578125	532.9256591796876	200.2583923339844	1417.315673828125	715.2125854492189	197.9673767089844	1250.268432617188	777.373962402344	177.1569061279297	1209.699584960938	787.0044555664065	226.9264068603516	1202.8818359375	791.824890136719	193.8169403076172	1145.7880859375	782.7651367187502	197.939437866211	1079.737670898438	757.6416015625001	187.6451873779297	1046.512573242188	796.6658935546877	237.8160858154297	1042.733764648438	792.9924316406252	207.4962158203126	983.7539062500002	801.2517089843752	192.5505828857422	943.5413818359377	787.2698364257815	242.6303100585938	936.7268676757815	778.2515869140627	214.1161499023438	882.9097290039065	804.4336547851565	20.8005485534668	680.1765136718751	766.3796997070314	57.2559280395508	641.6928100585939	825.5817871093752	37.59260559082032	623.8333129882814	783.7305297851565	44.50141143798829	342.5127868652344	884.3944091796877	55.97779083251955	300.9294433593751	951.065856933594	54.92223739624025	284.6349792480469	903.5988769531252	150.0838165283203	127.0316543579102	1037.585083007813	149.0485382080078	39.43912887573243	836.4412231445315	49.83597564697267	32.56003952026368	882.7886962890627	386.679168701172	645.7882080078126	620.5967407226564	404.9201965332032	613.7713623046876	549.6392211914064	378.8197631835938	594.6802978515626	588.2144165039064	386.6041870117189	319.3213195800782	491.7852783203126	396.6644287109376	272.5175476074219	429.8565063476564	375.6178894042969	261.1377868652344	473.3797607421876	290.8828125000001	50.44421768188478	380.8826904296876	312.0951843261719	142.5870819091797	193.5467529296876	406.4101867675782	90.8495559692383	225.199447631836	204.3461456298829	1311.360717773438	545.4783325195314	200.3964233398438	1168.31591796875	531.3928833007814	29.50830459594727	1380.631958007813	636.2107543945314	-76.07279205322267	1234.398071289063	615.8988037109376	-95.60848236083986	1171.572021484375	613.2236938476564	-73.61559295654298	1187.317260742188	571.7670898437501	-118.8867950439453	1001.341491699219	490.6514587402345	-99.70600128173831	924.8728027343752	483.9619445800782	-109.5162582397461	958.7349243164065	447.6617126464845	-93.19365692138673	892.5269165039065	368.8392028808594	-26.36240386962891	929.1016235351565	348.0096740722657	372.3621520996094	1366.98291015625	636.6569824218751	469.2812805175782	1223.810180664063	683.3075561523439	483.0415954589845	1160.557250976563	671.7046508789064	486.2087707519532	1172.076904296875	721.2241821289064	530.6932983398439	955.2167968750002	727.1483764648439	570.9518432617189	899.0112915039065	689.3641967773439	539.7749023437501	893.0781250000002	727.3259277343751	565.8269042968751	808.178649902344	706.3085937500001	504.7382812500001	781.3543701171877	659.6095581054689	
